<svg width="16" height="15" viewBox="0 0 16 15" fill="none" xmlns="http://www.w3.org/2000/svg">
<path d="M13.25 0.5H2.75C1.5095 0.5 0.5 1.5095 0.5 2.75V4.87325C0.5 5.663 0.7865 6.38075 1.25 6.93275V14C1.25 14.1989 1.32902 14.3897 1.46967 14.5303C1.61032 14.671 1.80109 14.75 2 14.75H8C8.19891 14.75 8.38968 14.671 8.53033 14.5303C8.67098 14.3897 8.75 14.1989 8.75 14V10.25H11.75V14C11.75 14.1989 11.829 14.3897 11.9697 14.5303C12.1103 14.671 12.3011 14.75 12.5 14.75H14C14.1989 14.75 14.3897 14.671 14.5303 14.5303C14.671 14.3897 14.75 14.1989 14.75 14V6.932C15.2135 6.38075 15.5 5.663 15.5 4.8725V2.75C15.5 1.5095 14.4905 0.5 13.25 0.5ZM14 2.75V4.87325C14 5.72825 13.3632 6.45725 12.5817 6.4985L12.5 6.5C11.6727 6.5 11 5.82725 11 5V2H13.25C13.664 2 14 2.33675 14 2.75ZM6.5 5V2H9.5V5C9.5 5.82725 8.82725 6.5 8 6.5C7.17275 6.5 6.5 5.82725 6.5 5ZM2 2.75C2 2.33675 2.336 2 2.75 2H5V5C5 5.82725 4.32725 6.5 3.5 6.5L3.41825 6.49775C2.63675 6.45725 2 5.72825 2 4.87325V2.75ZM6.5 11H3.5V8.75H6.5V11Z" fill="#DEE2E6"/>
</svg>
