<svg width="17" height="17" viewBox="0 0 17 17" fill="none" xmlns="http://www.w3.org/2000/svg">
<path d="M8.50004 0.583252C6.93428 0.583252 5.40367 1.04756 4.10178 1.91745C2.79989 2.78735 1.78519 4.02376 1.186 5.47034C0.586804 6.91692 0.430028 8.5087 0.735494 10.0444C1.04096 11.5801 1.79495 12.9907 2.90212 14.0978C4.00928 15.205 5.4199 15.959 6.95558 16.2645C8.49126 16.5699 10.083 16.4132 11.5296 15.814C12.9762 15.2148 14.2126 14.2001 15.0825 12.8982C15.9524 11.5963 16.4167 10.0657 16.4167 8.49992C16.4167 7.46029 16.2119 6.43084 15.8141 5.47034C15.4162 4.50985 14.8331 3.63712 14.098 2.90199C13.3628 2.16686 12.4901 1.58372 11.5296 1.18587C10.5691 0.788023 9.53968 0.583252 8.50004 0.583252ZM8.50004 13.2499C8.34347 13.2499 8.19041 13.2035 8.06022 13.1165C7.93003 13.0295 7.82856 12.9059 7.76864 12.7612C7.70872 12.6166 7.69304 12.4574 7.72359 12.3038C7.75414 12.1502 7.82954 12.0092 7.94025 11.8985C8.05097 11.7877 8.19203 11.7123 8.3456 11.6818C8.49917 11.6512 8.65834 11.6669 8.803 11.7268C8.94766 11.7868 9.0713 11.8882 9.15829 12.0184C9.24528 12.1486 9.29171 12.3017 9.29171 12.4583C9.29171 12.6682 9.2083 12.8696 9.05984 13.018C8.91137 13.1665 8.71001 13.2499 8.50004 13.2499ZM9.29171 9.16492V10.0833C9.29171 10.2932 9.2083 10.4946 9.05984 10.643C8.91137 10.7915 8.71001 10.8749 8.50004 10.8749C8.29008 10.8749 8.08872 10.7915 7.94025 10.643C7.79179 10.4946 7.70838 10.2932 7.70838 10.0833V8.49992C7.70838 8.28996 7.79179 8.08859 7.94025 7.94013C8.08872 7.79166 8.29008 7.70825 8.50004 7.70825C8.73491 7.70825 8.9645 7.63861 9.15978 7.50812C9.35507 7.37764 9.50727 7.19218 9.59715 6.97519C9.68703 6.7582 9.71055 6.51943 9.66473 6.28908C9.61891 6.05873 9.50581 5.84714 9.33973 5.68106C9.17366 5.51499 8.96207 5.40189 8.73172 5.35607C8.50136 5.31025 8.2626 5.33377 8.04561 5.42364C7.82862 5.51352 7.64316 5.66573 7.51267 5.86101C7.38219 6.0563 7.31254 6.28589 7.31254 6.52075C7.31254 6.73071 7.22914 6.93208 7.08067 7.08054C6.9322 7.22901 6.73084 7.31242 6.52088 7.31242C6.31091 7.31242 6.10955 7.22901 5.96108 7.08054C5.81262 6.93208 5.72921 6.73071 5.72921 6.52075C5.72714 6.00641 5.86827 5.50164 6.13681 5.06296C6.40535 4.62428 6.79069 4.269 7.2497 4.0369C7.7087 3.8048 8.22325 3.70505 8.73574 3.74881C9.24822 3.79256 9.73841 3.9781 10.1514 4.28465C10.5644 4.5912 10.884 5.00666 11.0743 5.48451C11.2646 5.96237 11.3181 6.48376 11.2288 6.99031C11.1396 7.49685 10.9111 7.96857 10.569 8.35263C10.2269 8.7367 9.78462 9.01796 9.29171 9.16492Z" fill="#DEE2E6"/>
</svg>
