<svg width="16" height="13" viewBox="0 0 16 13" fill="none" xmlns="http://www.w3.org/2000/svg">
<path d="M14.75 0H1.25C1.05109 0 0.860322 0.0790178 0.71967 0.21967C0.579018 0.360322 0.5 0.551088 0.5 0.75V11.25C0.5 11.6478 0.658035 12.0294 0.93934 12.3107C1.22064 12.592 1.60218 12.75 2 12.75H14C14.3978 12.75 14.7794 12.592 15.0607 12.3107C15.342 12.0294 15.5 11.6478 15.5 11.25V0.75C15.5 0.551088 15.421 0.360322 15.2803 0.21967C15.1397 0.0790178 14.9489 0 14.75 0ZM8 6.75C5.51825 6.75 3.5 4.73175 3.5 2.25H5C5 3.9045 6.3455 5.25 8 5.25C9.6545 5.25 11 3.9045 11 2.25H12.5C12.5 4.73175 10.4818 6.75 8 6.75Z" fill="#DEE2E6"/>
</svg>
